<?xml version="1.0" encoding="UTF-8" standalone="no"?><svg xmlns="http://www.w3.org/2000/svg" xmlns:xlink="http://www.w3.org/1999/xlink" contentScriptType="application/ecmascript" contentStyleType="text/css" height="823px" preserveAspectRatio="none" style="width:2558px;height:823px;" version="1.1" viewBox="0 0 2558 823" width="2558px" zoomAndPan="magnify"><defs><filter height="300%" id="f7fqbtdtjabde" width="300%" x="-1" y="-1"><feGaussianBlur result="blurOut" stdDeviation="2.0"/><feColorMatrix in="blurOut" result="blurOut2" type="matrix" values="0 0 0 0 0 0 0 0 0 0 0 0 0 0 0 0 0 0 .4 0"/><feOffset dx="4.0" dy="4.0" in="blurOut2" result="blurOut3"/><feBlend in="SourceGraphic" in2="blurOut3" mode="normal"/></filter></defs><g><!--class Mathematical Analysis--><rect fill="#FEFECE" filter="url(#f7fqbtdtjabde)" height="48" id="Mathematical Analysis" style="stroke: #A80036; stroke-width: 1.5;" width="170" x="614" y="116"/><ellipse cx="629" cy="132" fill="#ADD1B2" rx="11" ry="11" style="stroke: #A80036; stroke-width: 1.0;"/><path d="M631.3438,127.6719 L631.5156,127.75 C631.7344,127.4375 631.9375,127.3438 632.2344,127.3438 C632.5313,127.3438 632.8125,127.4844 632.9688,127.75 C633.0625,127.9063 633.0781,128.0313 633.0781,128.4688 L633.0781,129.8906 C633.0781,130.3125 633.0469,130.5 632.9375,130.6563 C632.7656,130.875 632.5,131.0156 632.2344,131.0156 C632.0156,131.0156 631.7813,130.9063 631.6406,130.7656 C631.5,130.6406 631.4688,130.5156 631.4063,130.1094 C631.3125,129.7031 631.1406,129.4844 630.6563,129.2031 C630.1875,128.9531 629.5781,128.7969 629,128.7969 C627.2656,128.7969 626.0156,130.1094 626.0156,131.8906 L626.0156,132.9844 C626.0156,134.6875 627.3125,135.7813 629.3594,135.7813 C630.125,135.7813 630.8125,135.6563 631.2344,135.3906 C631.4219,135.2969 631.4219,135.2969 631.875,134.8125 C632.0625,134.625 632.2656,134.5469 632.4844,134.5469 C632.9531,134.5469 633.3438,134.9375 633.3438,135.3906 C633.3438,135.7813 633.0156,136.2344 632.4375,136.6406 C631.6875,137.1875 630.5313,137.4844 629.3125,137.4844 C626.4219,137.4844 624.3125,135.5938 624.3125,133.0156 L624.3125,131.8906 C624.3125,129.1719 626.3125,127.0938 628.9375,127.0938 C629.8125,127.0938 630.4063,127.2344 631.3438,127.6719 Z "/><text fill="#000000" font-family="sans-serif" font-size="12" lengthAdjust="spacingAndGlyphs" textLength="138" x="643" y="136.1543">Mathematical Analysis</text><line style="stroke: #A80036; stroke-width: 1.5;" x1="615" x2="783" y1="148" y2="148"/><line style="stroke: #A80036; stroke-width: 1.5;" x1="615" x2="783" y1="156" y2="156"/><!--class Differential Geometry--><rect fill="#FEFECE" filter="url(#f7fqbtdtjabde)" height="48" id="Differential Geometry" style="stroke: #A80036; stroke-width: 1.5;" width="164" x="22" y="332"/><ellipse cx="37" cy="348" fill="#ADD1B2" rx="11" ry="11" style="stroke: #A80036; stroke-width: 1.0;"/><path d="M39.3438,343.6719 L39.5156,343.75 C39.7344,343.4375 39.9375,343.3438 40.2344,343.3438 C40.5313,343.3438 40.8125,343.4844 40.9688,343.75 C41.0625,343.9063 41.0781,344.0313 41.0781,344.4688 L41.0781,345.8906 C41.0781,346.3125 41.0469,346.5 40.9375,346.6563 C40.7656,346.875 40.5,347.0156 40.2344,347.0156 C40.0156,347.0156 39.7813,346.9063 39.6406,346.7656 C39.5,346.6406 39.4688,346.5156 39.4063,346.1094 C39.3125,345.7031 39.1406,345.4844 38.6563,345.2031 C38.1875,344.9531 37.5781,344.7969 37,344.7969 C35.2656,344.7969 34.0156,346.1094 34.0156,347.8906 L34.0156,348.9844 C34.0156,350.6875 35.3125,351.7813 37.3594,351.7813 C38.125,351.7813 38.8125,351.6563 39.2344,351.3906 C39.4219,351.2969 39.4219,351.2969 39.875,350.8125 C40.0625,350.625 40.2656,350.5469 40.4844,350.5469 C40.9531,350.5469 41.3438,350.9375 41.3438,351.3906 C41.3438,351.7813 41.0156,352.2344 40.4375,352.6406 C39.6875,353.1875 38.5313,353.4844 37.3125,353.4844 C34.4219,353.4844 32.3125,351.5938 32.3125,349.0156 L32.3125,347.8906 C32.3125,345.1719 34.3125,343.0938 36.9375,343.0938 C37.8125,343.0938 38.4063,343.2344 39.3438,343.6719 Z "/><text fill="#000000" font-family="sans-serif" font-size="12" lengthAdjust="spacingAndGlyphs" textLength="132" x="51" y="352.1543">Differential Geometry</text><line style="stroke: #A80036; stroke-width: 1.5;" x1="23" x2="185" y1="364" y2="364"/><line style="stroke: #A80036; stroke-width: 1.5;" x1="23" x2="185" y1="372" y2="372"/><!--class Introduction to Tensor--><rect fill="#FEFECE" filter="url(#f7fqbtdtjabde)" height="48" id="Introduction to Tensor" style="stroke: #A80036; stroke-width: 1.5;" width="172" x="884" y="224"/><ellipse cx="899" cy="240" fill="#ADD1B2" rx="11" ry="11" style="stroke: #A80036; stroke-width: 1.0;"/><path d="M901.3438,235.6719 L901.5156,235.75 C901.7344,235.4375 901.9375,235.3438 902.2344,235.3438 C902.5313,235.3438 902.8125,235.4844 902.9688,235.75 C903.0625,235.9063 903.0781,236.0313 903.0781,236.4688 L903.0781,237.8906 C903.0781,238.3125 903.0469,238.5 902.9375,238.6563 C902.7656,238.875 902.5,239.0156 902.2344,239.0156 C902.0156,239.0156 901.7813,238.9063 901.6406,238.7656 C901.5,238.6406 901.4688,238.5156 901.4063,238.1094 C901.3125,237.7031 901.1406,237.4844 900.6563,237.2031 C900.1875,236.9531 899.5781,236.7969 899,236.7969 C897.2656,236.7969 896.0156,238.1094 896.0156,239.8906 L896.0156,240.9844 C896.0156,242.6875 897.3125,243.7813 899.3594,243.7813 C900.125,243.7813 900.8125,243.6563 901.2344,243.3906 C901.4219,243.2969 901.4219,243.2969 901.875,242.8125 C902.0625,242.625 902.2656,242.5469 902.4844,242.5469 C902.9531,242.5469 903.3438,242.9375 903.3438,243.3906 C903.3438,243.7813 903.0156,244.2344 902.4375,244.6406 C901.6875,245.1875 900.5313,245.4844 899.3125,245.4844 C896.4219,245.4844 894.3125,243.5938 894.3125,241.0156 L894.3125,239.8906 C894.3125,237.1719 896.3125,235.0938 898.9375,235.0938 C899.8125,235.0938 900.4063,235.2344 901.3438,235.6719 Z "/><text fill="#000000" font-family="sans-serif" font-size="12" lengthAdjust="spacingAndGlyphs" textLength="140" x="913" y="244.1543">Introduction to Tensor</text><line style="stroke: #A80036; stroke-width: 1.5;" x1="885" x2="1055" y1="256" y2="256"/><line style="stroke: #A80036; stroke-width: 1.5;" x1="885" x2="1055" y1="264" y2="264"/><!--class Topology--><rect fill="#FEFECE" filter="url(#f7fqbtdtjabde)" height="48" id="Topology" style="stroke: #A80036; stroke-width: 1.5;" width="88" x="1682" y="224"/><ellipse cx="1697" cy="240" fill="#ADD1B2" rx="11" ry="11" style="stroke: #A80036; stroke-width: 1.0;"/><path d="M1699.3438,235.6719 L1699.5156,235.75 C1699.7344,235.4375 1699.9375,235.3438 1700.2344,235.3438 C1700.5313,235.3438 1700.8125,235.4844 1700.9688,235.75 C1701.0625,235.9063 1701.0781,236.0313 1701.0781,236.4688 L1701.0781,237.8906 C1701.0781,238.3125 1701.0469,238.5 1700.9375,238.6563 C1700.7656,238.875 1700.5,239.0156 1700.2344,239.0156 C1700.0156,239.0156 1699.7813,238.9063 1699.6406,238.7656 C1699.5,238.6406 1699.4688,238.5156 1699.4063,238.1094 C1699.3125,237.7031 1699.1406,237.4844 1698.6563,237.2031 C1698.1875,236.9531 1697.5781,236.7969 1697,236.7969 C1695.2656,236.7969 1694.0156,238.1094 1694.0156,239.8906 L1694.0156,240.9844 C1694.0156,242.6875 1695.3125,243.7813 1697.3594,243.7813 C1698.125,243.7813 1698.8125,243.6563 1699.2344,243.3906 C1699.4219,243.2969 1699.4219,243.2969 1699.875,242.8125 C1700.0625,242.625 1700.2656,242.5469 1700.4844,242.5469 C1700.9531,242.5469 1701.3438,242.9375 1701.3438,243.3906 C1701.3438,243.7813 1701.0156,244.2344 1700.4375,244.6406 C1699.6875,245.1875 1698.5313,245.4844 1697.3125,245.4844 C1694.4219,245.4844 1692.3125,243.5938 1692.3125,241.0156 L1692.3125,239.8906 C1692.3125,237.1719 1694.3125,235.0938 1696.9375,235.0938 C1697.8125,235.0938 1698.4063,235.2344 1699.3438,235.6719 Z "/><text fill="#000000" font-family="sans-serif" font-size="12" lengthAdjust="spacingAndGlyphs" textLength="56" x="1711" y="244.1543">Topology</text><line style="stroke: #A80036; stroke-width: 1.5;" x1="1683" x2="1769" y1="256" y2="256"/><line style="stroke: #A80036; stroke-width: 1.5;" x1="1683" x2="1769" y1="264" y2="264"/><!--class Probability--><rect fill="#FEFECE" filter="url(#f7fqbtdtjabde)" height="48" id="Probability" style="stroke: #A80036; stroke-width: 1.5;" width="97" x="1091.5" y="224"/><ellipse cx="1106.5" cy="240" fill="#ADD1B2" rx="11" ry="11" style="stroke: #A80036; stroke-width: 1.0;"/><path d="M1108.8438,235.6719 L1109.0156,235.75 C1109.2344,235.4375 1109.4375,235.3438 1109.7344,235.3438 C1110.0313,235.3438 1110.3125,235.4844 1110.4688,235.75 C1110.5625,235.9063 1110.5781,236.0313 1110.5781,236.4688 L1110.5781,237.8906 C1110.5781,238.3125 1110.5469,238.5 1110.4375,238.6563 C1110.2656,238.875 1110,239.0156 1109.7344,239.0156 C1109.5156,239.0156 1109.2813,238.9063 1109.1406,238.7656 C1109,238.6406 1108.9688,238.5156 1108.9063,238.1094 C1108.8125,237.7031 1108.6406,237.4844 1108.1563,237.2031 C1107.6875,236.9531 1107.0781,236.7969 1106.5,236.7969 C1104.7656,236.7969 1103.5156,238.1094 1103.5156,239.8906 L1103.5156,240.9844 C1103.5156,242.6875 1104.8125,243.7813 1106.8594,243.7813 C1107.625,243.7813 1108.3125,243.6563 1108.7344,243.3906 C1108.9219,243.2969 1108.9219,243.2969 1109.375,242.8125 C1109.5625,242.625 1109.7656,242.5469 1109.9844,242.5469 C1110.4531,242.5469 1110.8438,242.9375 1110.8438,243.3906 C1110.8438,243.7813 1110.5156,244.2344 1109.9375,244.6406 C1109.1875,245.1875 1108.0313,245.4844 1106.8125,245.4844 C1103.9219,245.4844 1101.8125,243.5938 1101.8125,241.0156 L1101.8125,239.8906 C1101.8125,237.1719 1103.8125,235.0938 1106.4375,235.0938 C1107.3125,235.0938 1107.9063,235.2344 1108.8438,235.6719 Z "/><text fill="#000000" font-family="sans-serif" font-size="12" lengthAdjust="spacingAndGlyphs" textLength="65" x="1120.5" y="244.1543">Probability</text><line style="stroke: #A80036; stroke-width: 1.5;" x1="1092.5" x2="1187.5" y1="256" y2="256"/><line style="stroke: #A80036; stroke-width: 1.5;" x1="1092.5" x2="1187.5" y1="264" y2="264"/><!--class ODE--><rect fill="#FEFECE" filter="url(#f7fqbtdtjabde)" height="48" id="ODE" style="stroke: #A80036; stroke-width: 1.5;" width="58" x="256" y="224"/><ellipse cx="271" cy="240" fill="#ADD1B2" rx="11" ry="11" style="stroke: #A80036; stroke-width: 1.0;"/><path d="M273.3438,235.6719 L273.5156,235.75 C273.7344,235.4375 273.9375,235.3438 274.2344,235.3438 C274.5313,235.3438 274.8125,235.4844 274.9688,235.75 C275.0625,235.9063 275.0781,236.0313 275.0781,236.4688 L275.0781,237.8906 C275.0781,238.3125 275.0469,238.5 274.9375,238.6563 C274.7656,238.875 274.5,239.0156 274.2344,239.0156 C274.0156,239.0156 273.7813,238.9063 273.6406,238.7656 C273.5,238.6406 273.4688,238.5156 273.4063,238.1094 C273.3125,237.7031 273.1406,237.4844 272.6563,237.2031 C272.1875,236.9531 271.5781,236.7969 271,236.7969 C269.2656,236.7969 268.0156,238.1094 268.0156,239.8906 L268.0156,240.9844 C268.0156,242.6875 269.3125,243.7813 271.3594,243.7813 C272.125,243.7813 272.8125,243.6563 273.2344,243.3906 C273.4219,243.2969 273.4219,243.2969 273.875,242.8125 C274.0625,242.625 274.2656,242.5469 274.4844,242.5469 C274.9531,242.5469 275.3438,242.9375 275.3438,243.3906 C275.3438,243.7813 275.0156,244.2344 274.4375,244.6406 C273.6875,245.1875 272.5313,245.4844 271.3125,245.4844 C268.4219,245.4844 266.3125,243.5938 266.3125,241.0156 L266.3125,239.8906 C266.3125,237.1719 268.3125,235.0938 270.9375,235.0938 C271.8125,235.0938 272.4063,235.2344 273.3438,235.6719 Z "/><text fill="#000000" font-family="sans-serif" font-size="12" lengthAdjust="spacingAndGlyphs" textLength="26" x="285" y="244.1543">ODE</text><line style="stroke: #A80036; stroke-width: 1.5;" x1="257" x2="313" y1="256" y2="256"/><line style="stroke: #A80036; stroke-width: 1.5;" x1="257" x2="313" y1="264" y2="264"/><!--class Complex Analysis--><rect fill="#FEFECE" filter="url(#f7fqbtdtjabde)" height="48" id="Complex Analysis" style="stroke: #A80036; stroke-width: 1.5;" width="138" x="569" y="224"/><ellipse cx="584" cy="240" fill="#ADD1B2" rx="11" ry="11" style="stroke: #A80036; stroke-width: 1.0;"/><path d="M586.3438,235.6719 L586.5156,235.75 C586.7344,235.4375 586.9375,235.3438 587.2344,235.3438 C587.5313,235.3438 587.8125,235.4844 587.9688,235.75 C588.0625,235.9063 588.0781,236.0313 588.0781,236.4688 L588.0781,237.8906 C588.0781,238.3125 588.0469,238.5 587.9375,238.6563 C587.7656,238.875 587.5,239.0156 587.2344,239.0156 C587.0156,239.0156 586.7813,238.9063 586.6406,238.7656 C586.5,238.6406 586.4688,238.5156 586.4063,238.1094 C586.3125,237.7031 586.1406,237.4844 585.6563,237.2031 C585.1875,236.9531 584.5781,236.7969 584,236.7969 C582.2656,236.7969 581.0156,238.1094 581.0156,239.8906 L581.0156,240.9844 C581.0156,242.6875 582.3125,243.7813 584.3594,243.7813 C585.125,243.7813 585.8125,243.6563 586.2344,243.3906 C586.4219,243.2969 586.4219,243.2969 586.875,242.8125 C587.0625,242.625 587.2656,242.5469 587.4844,242.5469 C587.9531,242.5469 588.3438,242.9375 588.3438,243.3906 C588.3438,243.7813 588.0156,244.2344 587.4375,244.6406 C586.6875,245.1875 585.5313,245.4844 584.3125,245.4844 C581.4219,245.4844 579.3125,243.5938 579.3125,241.0156 L579.3125,239.8906 C579.3125,237.1719 581.3125,235.0938 583.9375,235.0938 C584.8125,235.0938 585.4063,235.2344 586.3438,235.6719 Z "/><text fill="#000000" font-family="sans-serif" font-size="12" lengthAdjust="spacingAndGlyphs" textLength="106" x="598" y="244.1543">Complex Analysis</text><line style="stroke: #A80036; stroke-width: 1.5;" x1="570" x2="706" y1="256" y2="256"/><line style="stroke: #A80036; stroke-width: 1.5;" x1="570" x2="706" y1="264" y2="264"/><!--class Real Analysis--><rect fill="#FEFECE" filter="url(#f7fqbtdtjabde)" height="48" id="Real Analysis" style="stroke: #A80036; stroke-width: 1.5;" width="113" x="349.5" y="224"/><ellipse cx="364.5" cy="240" fill="#ADD1B2" rx="11" ry="11" style="stroke: #A80036; stroke-width: 1.0;"/><path d="M366.8438,235.6719 L367.0156,235.75 C367.2344,235.4375 367.4375,235.3438 367.7344,235.3438 C368.0313,235.3438 368.3125,235.4844 368.4688,235.75 C368.5625,235.9063 368.5781,236.0313 368.5781,236.4688 L368.5781,237.8906 C368.5781,238.3125 368.5469,238.5 368.4375,238.6563 C368.2656,238.875 368,239.0156 367.7344,239.0156 C367.5156,239.0156 367.2813,238.9063 367.1406,238.7656 C367,238.6406 366.9688,238.5156 366.9063,238.1094 C366.8125,237.7031 366.6406,237.4844 366.1563,237.2031 C365.6875,236.9531 365.0781,236.7969 364.5,236.7969 C362.7656,236.7969 361.5156,238.1094 361.5156,239.8906 L361.5156,240.9844 C361.5156,242.6875 362.8125,243.7813 364.8594,243.7813 C365.625,243.7813 366.3125,243.6563 366.7344,243.3906 C366.9219,243.2969 366.9219,243.2969 367.375,242.8125 C367.5625,242.625 367.7656,242.5469 367.9844,242.5469 C368.4531,242.5469 368.8438,242.9375 368.8438,243.3906 C368.8438,243.7813 368.5156,244.2344 367.9375,244.6406 C367.1875,245.1875 366.0313,245.4844 364.8125,245.4844 C361.9219,245.4844 359.8125,243.5938 359.8125,241.0156 L359.8125,239.8906 C359.8125,237.1719 361.8125,235.0938 364.4375,235.0938 C365.3125,235.0938 365.9063,235.2344 366.8438,235.6719 Z "/><text fill="#000000" font-family="sans-serif" font-size="12" lengthAdjust="spacingAndGlyphs" textLength="81" x="378.5" y="244.1543">Real Analysis</text><line style="stroke: #A80036; stroke-width: 1.5;" x1="350.5" x2="461.5" y1="256" y2="256"/><line style="stroke: #A80036; stroke-width: 1.5;" x1="350.5" x2="461.5" y1="264" y2="264"/><!--class Functional Analysis--><rect fill="#FEFECE" filter="url(#f7fqbtdtjabde)" height="48" id="Functional Analysis" style="stroke: #A80036; stroke-width: 1.5;" width="151" x="505.5" y="332"/><ellipse cx="520.5" cy="348" fill="#ADD1B2" rx="11" ry="11" style="stroke: #A80036; stroke-width: 1.0;"/><path d="M522.8438,343.6719 L523.0156,343.75 C523.2344,343.4375 523.4375,343.3438 523.7344,343.3438 C524.0313,343.3438 524.3125,343.4844 524.4688,343.75 C524.5625,343.9063 524.5781,344.0313 524.5781,344.4688 L524.5781,345.8906 C524.5781,346.3125 524.5469,346.5 524.4375,346.6563 C524.2656,346.875 524,347.0156 523.7344,347.0156 C523.5156,347.0156 523.2813,346.9063 523.1406,346.7656 C523,346.6406 522.9688,346.5156 522.9063,346.1094 C522.8125,345.7031 522.6406,345.4844 522.1563,345.2031 C521.6875,344.9531 521.0781,344.7969 520.5,344.7969 C518.7656,344.7969 517.5156,346.1094 517.5156,347.8906 L517.5156,348.9844 C517.5156,350.6875 518.8125,351.7813 520.8594,351.7813 C521.625,351.7813 522.3125,351.6563 522.7344,351.3906 C522.9219,351.2969 522.9219,351.2969 523.375,350.8125 C523.5625,350.625 523.7656,350.5469 523.9844,350.5469 C524.4531,350.5469 524.8438,350.9375 524.8438,351.3906 C524.8438,351.7813 524.5156,352.2344 523.9375,352.6406 C523.1875,353.1875 522.0313,353.4844 520.8125,353.4844 C517.9219,353.4844 515.8125,351.5938 515.8125,349.0156 L515.8125,347.8906 C515.8125,345.1719 517.8125,343.0938 520.4375,343.0938 C521.3125,343.0938 521.9063,343.2344 522.8438,343.6719 Z "/><text fill="#000000" font-family="sans-serif" font-size="12" lengthAdjust="spacingAndGlyphs" textLength="119" x="534.5" y="352.1543">Functional Analysis</text><line style="stroke: #A80036; stroke-width: 1.5;" x1="506.5" x2="655.5" y1="364" y2="364"/><line style="stroke: #A80036; stroke-width: 1.5;" x1="506.5" x2="655.5" y1="372" y2="372"/><!--class Linear Algebra--><rect fill="#FEFECE" filter="url(#f7fqbtdtjabde)" height="48" id="Linear Algebra" style="stroke: #A80036; stroke-width: 1.5;" width="122" x="1130" y="116"/><ellipse cx="1145" cy="132" fill="#ADD1B2" rx="11" ry="11" style="stroke: #A80036; stroke-width: 1.0;"/><path d="M1147.3438,127.6719 L1147.5156,127.75 C1147.7344,127.4375 1147.9375,127.3438 1148.2344,127.3438 C1148.5313,127.3438 1148.8125,127.4844 1148.9688,127.75 C1149.0625,127.9063 1149.0781,128.0313 1149.0781,128.4688 L1149.0781,129.8906 C1149.0781,130.3125 1149.0469,130.5 1148.9375,130.6563 C1148.7656,130.875 1148.5,131.0156 1148.2344,131.0156 C1148.0156,131.0156 1147.7813,130.9063 1147.6406,130.7656 C1147.5,130.6406 1147.4688,130.5156 1147.4063,130.1094 C1147.3125,129.7031 1147.1406,129.4844 1146.6563,129.2031 C1146.1875,128.9531 1145.5781,128.7969 1145,128.7969 C1143.2656,128.7969 1142.0156,130.1094 1142.0156,131.8906 L1142.0156,132.9844 C1142.0156,134.6875 1143.3125,135.7813 1145.3594,135.7813 C1146.125,135.7813 1146.8125,135.6563 1147.2344,135.3906 C1147.4219,135.2969 1147.4219,135.2969 1147.875,134.8125 C1148.0625,134.625 1148.2656,134.5469 1148.4844,134.5469 C1148.9531,134.5469 1149.3438,134.9375 1149.3438,135.3906 C1149.3438,135.7813 1149.0156,136.2344 1148.4375,136.6406 C1147.6875,137.1875 1146.5313,137.4844 1145.3125,137.4844 C1142.4219,137.4844 1140.3125,135.5938 1140.3125,133.0156 L1140.3125,131.8906 C1140.3125,129.1719 1142.3125,127.0938 1144.9375,127.0938 C1145.8125,127.0938 1146.4063,127.2344 1147.3438,127.6719 Z "/><text fill="#000000" font-family="sans-serif" font-size="12" lengthAdjust="spacingAndGlyphs" textLength="90" x="1159" y="136.1543">Linear Algebra</text><line style="stroke: #A80036; stroke-width: 1.5;" x1="1131" x2="1251" y1="148" y2="148"/><line style="stroke: #A80036; stroke-width: 1.5;" x1="1131" x2="1251" y1="156" y2="156"/><!--class Graph Theory--><rect fill="#FEFECE" filter="url(#f7fqbtdtjabde)" height="48" id="Graph Theory" style="stroke: #A80036; stroke-width: 1.5;" width="116" x="1531" y="224"/><ellipse cx="1546" cy="240" fill="#ADD1B2" rx="11" ry="11" style="stroke: #A80036; stroke-width: 1.0;"/><path d="M1548.3438,235.6719 L1548.5156,235.75 C1548.7344,235.4375 1548.9375,235.3438 1549.2344,235.3438 C1549.5313,235.3438 1549.8125,235.4844 1549.9688,235.75 C1550.0625,235.9063 1550.0781,236.0313 1550.0781,236.4688 L1550.0781,237.8906 C1550.0781,238.3125 1550.0469,238.5 1549.9375,238.6563 C1549.7656,238.875 1549.5,239.0156 1549.2344,239.0156 C1549.0156,239.0156 1548.7813,238.9063 1548.6406,238.7656 C1548.5,238.6406 1548.4688,238.5156 1548.4063,238.1094 C1548.3125,237.7031 1548.1406,237.4844 1547.6563,237.2031 C1547.1875,236.9531 1546.5781,236.7969 1546,236.7969 C1544.2656,236.7969 1543.0156,238.1094 1543.0156,239.8906 L1543.0156,240.9844 C1543.0156,242.6875 1544.3125,243.7813 1546.3594,243.7813 C1547.125,243.7813 1547.8125,243.6563 1548.2344,243.3906 C1548.4219,243.2969 1548.4219,243.2969 1548.875,242.8125 C1549.0625,242.625 1549.2656,242.5469 1549.4844,242.5469 C1549.9531,242.5469 1550.3438,242.9375 1550.3438,243.3906 C1550.3438,243.7813 1550.0156,244.2344 1549.4375,244.6406 C1548.6875,245.1875 1547.5313,245.4844 1546.3125,245.4844 C1543.4219,245.4844 1541.3125,243.5938 1541.3125,241.0156 L1541.3125,239.8906 C1541.3125,237.1719 1543.3125,235.0938 1545.9375,235.0938 C1546.8125,235.0938 1547.4063,235.2344 1548.3438,235.6719 Z "/><text fill="#000000" font-family="sans-serif" font-size="12" lengthAdjust="spacingAndGlyphs" textLength="84" x="1560" y="244.1543">Graph Theory</text><line style="stroke: #A80036; stroke-width: 1.5;" x1="1532" x2="1646" y1="256" y2="256"/><line style="stroke: #A80036; stroke-width: 1.5;" x1="1532" x2="1646" y1="264" y2="264"/><!--class Combinatorics--><rect fill="#FEFECE" filter="url(#f7fqbtdtjabde)" height="48" id="Combinatorics" style="stroke: #A80036; stroke-width: 1.5;" width="121" x="1876.5" y="224"/><ellipse cx="1891.5" cy="240" fill="#ADD1B2" rx="11" ry="11" style="stroke: #A80036; stroke-width: 1.0;"/><path d="M1893.8438,235.6719 L1894.0156,235.75 C1894.2344,235.4375 1894.4375,235.3438 1894.7344,235.3438 C1895.0313,235.3438 1895.3125,235.4844 1895.4688,235.75 C1895.5625,235.9063 1895.5781,236.0313 1895.5781,236.4688 L1895.5781,237.8906 C1895.5781,238.3125 1895.5469,238.5 1895.4375,238.6563 C1895.2656,238.875 1895,239.0156 1894.7344,239.0156 C1894.5156,239.0156 1894.2813,238.9063 1894.1406,238.7656 C1894,238.6406 1893.9688,238.5156 1893.9063,238.1094 C1893.8125,237.7031 1893.6406,237.4844 1893.1563,237.2031 C1892.6875,236.9531 1892.0781,236.7969 1891.5,236.7969 C1889.7656,236.7969 1888.5156,238.1094 1888.5156,239.8906 L1888.5156,240.9844 C1888.5156,242.6875 1889.8125,243.7813 1891.8594,243.7813 C1892.625,243.7813 1893.3125,243.6563 1893.7344,243.3906 C1893.9219,243.2969 1893.9219,243.2969 1894.375,242.8125 C1894.5625,242.625 1894.7656,242.5469 1894.9844,242.5469 C1895.4531,242.5469 1895.8438,242.9375 1895.8438,243.3906 C1895.8438,243.7813 1895.5156,244.2344 1894.9375,244.6406 C1894.1875,245.1875 1893.0313,245.4844 1891.8125,245.4844 C1888.9219,245.4844 1886.8125,243.5938 1886.8125,241.0156 L1886.8125,239.8906 C1886.8125,237.1719 1888.8125,235.0938 1891.4375,235.0938 C1892.3125,235.0938 1892.9063,235.2344 1893.8438,235.6719 Z "/><text fill="#000000" font-family="sans-serif" font-size="12" lengthAdjust="spacingAndGlyphs" textLength="89" x="1905.5" y="244.1543">Combinatorics</text><line style="stroke: #A80036; stroke-width: 1.5;" x1="1877.5" x2="1996.5" y1="256" y2="256"/><line style="stroke: #A80036; stroke-width: 1.5;" x1="1877.5" x2="1996.5" y1="264" y2="264"/><!--class Introduction to Algebra--><rect fill="#FEFECE" filter="url(#f7fqbtdtjabde)" height="48" id="Introduction to Algebra" style="stroke: #A80036; stroke-width: 1.5;" width="177" x="1910.5" y="8"/><ellipse cx="1925.5" cy="24" fill="#ADD1B2" rx="11" ry="11" style="stroke: #A80036; stroke-width: 1.0;"/><path d="M1927.8438,19.6719 L1928.0156,19.75 C1928.2344,19.4375 1928.4375,19.3438 1928.7344,19.3438 C1929.0313,19.3438 1929.3125,19.4844 1929.4688,19.75 C1929.5625,19.9063 1929.5781,20.0313 1929.5781,20.4688 L1929.5781,21.8906 C1929.5781,22.3125 1929.5469,22.5 1929.4375,22.6563 C1929.2656,22.875 1929,23.0156 1928.7344,23.0156 C1928.5156,23.0156 1928.2813,22.9063 1928.1406,22.7656 C1928,22.6406 1927.9688,22.5156 1927.9063,22.1094 C1927.8125,21.7031 1927.6406,21.4844 1927.1563,21.2031 C1926.6875,20.9531 1926.0781,20.7969 1925.5,20.7969 C1923.7656,20.7969 1922.5156,22.1094 1922.5156,23.8906 L1922.5156,24.9844 C1922.5156,26.6875 1923.8125,27.7813 1925.8594,27.7813 C1926.625,27.7813 1927.3125,27.6563 1927.7344,27.3906 C1927.9219,27.2969 1927.9219,27.2969 1928.375,26.8125 C1928.5625,26.625 1928.7656,26.5469 1928.9844,26.5469 C1929.4531,26.5469 1929.8438,26.9375 1929.8438,27.3906 C1929.8438,27.7813 1929.5156,28.2344 1928.9375,28.6406 C1928.1875,29.1875 1927.0313,29.4844 1925.8125,29.4844 C1922.9219,29.4844 1920.8125,27.5938 1920.8125,25.0156 L1920.8125,23.8906 C1920.8125,21.1719 1922.8125,19.0938 1925.4375,19.0938 C1926.3125,19.0938 1926.9063,19.2344 1927.8438,19.6719 Z "/><text fill="#000000" font-family="sans-serif" font-size="12" lengthAdjust="spacingAndGlyphs" textLength="145" x="1939.5" y="28.1543">Introduction to Algebra</text><line style="stroke: #A80036; stroke-width: 1.5;" x1="1911.5" x2="2086.5" y1="40" y2="40"/><line style="stroke: #A80036; stroke-width: 1.5;" x1="1911.5" x2="2086.5" y1="48" y2="48"/><!--class Algebra--><rect fill="#FEFECE" filter="url(#f7fqbtdtjabde)" height="48" id="Algebra" style="stroke: #A80036; stroke-width: 1.5;" width="80" x="2011" y="116"/><ellipse cx="2026" cy="132" fill="#ADD1B2" rx="11" ry="11" style="stroke: #A80036; stroke-width: 1.0;"/><path d="M2028.3438,127.6719 L2028.5156,127.75 C2028.7344,127.4375 2028.9375,127.3438 2029.2344,127.3438 C2029.5313,127.3438 2029.8125,127.4844 2029.9688,127.75 C2030.0625,127.9063 2030.0781,128.0313 2030.0781,128.4688 L2030.0781,129.8906 C2030.0781,130.3125 2030.0469,130.5 2029.9375,130.6563 C2029.7656,130.875 2029.5,131.0156 2029.2344,131.0156 C2029.0156,131.0156 2028.7813,130.9063 2028.6406,130.7656 C2028.5,130.6406 2028.4688,130.5156 2028.4063,130.1094 C2028.3125,129.7031 2028.1406,129.4844 2027.6563,129.2031 C2027.1875,128.9531 2026.5781,128.7969 2026,128.7969 C2024.2656,128.7969 2023.0156,130.1094 2023.0156,131.8906 L2023.0156,132.9844 C2023.0156,134.6875 2024.3125,135.7813 2026.3594,135.7813 C2027.125,135.7813 2027.8125,135.6563 2028.2344,135.3906 C2028.4219,135.2969 2028.4219,135.2969 2028.875,134.8125 C2029.0625,134.625 2029.2656,134.5469 2029.4844,134.5469 C2029.9531,134.5469 2030.3438,134.9375 2030.3438,135.3906 C2030.3438,135.7813 2030.0156,136.2344 2029.4375,136.6406 C2028.6875,137.1875 2027.5313,137.4844 2026.3125,137.4844 C2023.4219,137.4844 2021.3125,135.5938 2021.3125,133.0156 L2021.3125,131.8906 C2021.3125,129.1719 2023.3125,127.0938 2025.9375,127.0938 C2026.8125,127.0938 2027.4063,127.2344 2028.3438,127.6719 Z "/><text fill="#000000" font-family="sans-serif" font-size="12" lengthAdjust="spacingAndGlyphs" textLength="48" x="2040" y="136.1543">Algebra</text><line style="stroke: #A80036; stroke-width: 1.5;" x1="2012" x2="2090" y1="148" y2="148"/><line style="stroke: #A80036; stroke-width: 1.5;" x1="2012" x2="2090" y1="156" y2="156"/><!--class Analytic Geometry--><rect fill="#FEFECE" filter="url(#f7fqbtdtjabde)" height="48" id="Analytic Geometry" style="stroke: #A80036; stroke-width: 1.5;" width="144" x="6" y="224"/><ellipse cx="21" cy="240" fill="#ADD1B2" rx="11" ry="11" style="stroke: #A80036; stroke-width: 1.0;"/><path d="M23.3438,235.6719 L23.5156,235.75 C23.7344,235.4375 23.9375,235.3438 24.2344,235.3438 C24.5313,235.3438 24.8125,235.4844 24.9688,235.75 C25.0625,235.9063 25.0781,236.0313 25.0781,236.4688 L25.0781,237.8906 C25.0781,238.3125 25.0469,238.5 24.9375,238.6563 C24.7656,238.875 24.5,239.0156 24.2344,239.0156 C24.0156,239.0156 23.7813,238.9063 23.6406,238.7656 C23.5,238.6406 23.4688,238.5156 23.4063,238.1094 C23.3125,237.7031 23.1406,237.4844 22.6563,237.2031 C22.1875,236.9531 21.5781,236.7969 21,236.7969 C19.2656,236.7969 18.0156,238.1094 18.0156,239.8906 L18.0156,240.9844 C18.0156,242.6875 19.3125,243.7813 21.3594,243.7813 C22.125,243.7813 22.8125,243.6563 23.2344,243.3906 C23.4219,243.2969 23.4219,243.2969 23.875,242.8125 C24.0625,242.625 24.2656,242.5469 24.4844,242.5469 C24.9531,242.5469 25.3438,242.9375 25.3438,243.3906 C25.3438,243.7813 25.0156,244.2344 24.4375,244.6406 C23.6875,245.1875 22.5313,245.4844 21.3125,245.4844 C18.4219,245.4844 16.3125,243.5938 16.3125,241.0156 L16.3125,239.8906 C16.3125,237.1719 18.3125,235.0938 20.9375,235.0938 C21.8125,235.0938 22.4063,235.2344 23.3438,235.6719 Z "/><text fill="#000000" font-family="sans-serif" font-size="12" lengthAdjust="spacingAndGlyphs" textLength="112" x="35" y="244.1543">Analytic Geometry</text><line style="stroke: #A80036; stroke-width: 1.5;" x1="7" x2="149" y1="256" y2="256"/><line style="stroke: #A80036; stroke-width: 1.5;" x1="7" x2="149" y1="264" y2="264"/><!--class PDE--><rect fill="#FEFECE" filter="url(#f7fqbtdtjabde)" height="48" id="PDE" style="stroke: #A80036; stroke-width: 1.5;" width="57" x="265.5" y="440"/><ellipse cx="280.5" cy="456" fill="#ADD1B2" rx="11" ry="11" style="stroke: #A80036; stroke-width: 1.0;"/><path d="M282.8438,451.6719 L283.0156,451.75 C283.2344,451.4375 283.4375,451.3438 283.7344,451.3438 C284.0313,451.3438 284.3125,451.4844 284.4688,451.75 C284.5625,451.9063 284.5781,452.0313 284.5781,452.4688 L284.5781,453.8906 C284.5781,454.3125 284.5469,454.5 284.4375,454.6563 C284.2656,454.875 284,455.0156 283.7344,455.0156 C283.5156,455.0156 283.2813,454.9063 283.1406,454.7656 C283,454.6406 282.9688,454.5156 282.9063,454.1094 C282.8125,453.7031 282.6406,453.4844 282.1563,453.2031 C281.6875,452.9531 281.0781,452.7969 280.5,452.7969 C278.7656,452.7969 277.5156,454.1094 277.5156,455.8906 L277.5156,456.9844 C277.5156,458.6875 278.8125,459.7813 280.8594,459.7813 C281.625,459.7813 282.3125,459.6563 282.7344,459.3906 C282.9219,459.2969 282.9219,459.2969 283.375,458.8125 C283.5625,458.625 283.7656,458.5469 283.9844,458.5469 C284.4531,458.5469 284.8438,458.9375 284.8438,459.3906 C284.8438,459.7813 284.5156,460.2344 283.9375,460.6406 C283.1875,461.1875 282.0313,461.4844 280.8125,461.4844 C277.9219,461.4844 275.8125,459.5938 275.8125,457.0156 L275.8125,455.8906 C275.8125,453.1719 277.8125,451.0938 280.4375,451.0938 C281.3125,451.0938 281.9063,451.2344 282.8438,451.6719 Z "/><text fill="#000000" font-family="sans-serif" font-size="12" lengthAdjust="spacingAndGlyphs" textLength="25" x="294.5" y="460.1543">PDE</text><line style="stroke: #A80036; stroke-width: 1.5;" x1="266.5" x2="321.5" y1="472" y2="472"/><line style="stroke: #A80036; stroke-width: 1.5;" x1="266.5" x2="321.5" y1="480" y2="480"/><!--class Advanced Real Analysis--><rect fill="#FEFECE" filter="url(#f7fqbtdtjabde)" height="48" id="Advanced Real Analysis" style="stroke: #A80036; stroke-width: 1.5;" width="178" x="538" y="440"/><ellipse cx="553" cy="456" fill="#ADD1B2" rx="11" ry="11" style="stroke: #A80036; stroke-width: 1.0;"/><path d="M555.3438,451.6719 L555.5156,451.75 C555.7344,451.4375 555.9375,451.3438 556.2344,451.3438 C556.5313,451.3438 556.8125,451.4844 556.9688,451.75 C557.0625,451.9063 557.0781,452.0313 557.0781,452.4688 L557.0781,453.8906 C557.0781,454.3125 557.0469,454.5 556.9375,454.6563 C556.7656,454.875 556.5,455.0156 556.2344,455.0156 C556.0156,455.0156 555.7813,454.9063 555.6406,454.7656 C555.5,454.6406 555.4688,454.5156 555.4063,454.1094 C555.3125,453.7031 555.1406,453.4844 554.6563,453.2031 C554.1875,452.9531 553.5781,452.7969 553,452.7969 C551.2656,452.7969 550.0156,454.1094 550.0156,455.8906 L550.0156,456.9844 C550.0156,458.6875 551.3125,459.7813 553.3594,459.7813 C554.125,459.7813 554.8125,459.6563 555.2344,459.3906 C555.4219,459.2969 555.4219,459.2969 555.875,458.8125 C556.0625,458.625 556.2656,458.5469 556.4844,458.5469 C556.9531,458.5469 557.3438,458.9375 557.3438,459.3906 C557.3438,459.7813 557.0156,460.2344 556.4375,460.6406 C555.6875,461.1875 554.5313,461.4844 553.3125,461.4844 C550.4219,461.4844 548.3125,459.5938 548.3125,457.0156 L548.3125,455.8906 C548.3125,453.1719 550.3125,451.0938 552.9375,451.0938 C553.8125,451.0938 554.4063,451.2344 555.3438,451.6719 Z "/><text fill="#000000" font-family="sans-serif" font-size="12" lengthAdjust="spacingAndGlyphs" textLength="146" x="567" y="460.1543">Advanced Real Analysis</text><line style="stroke: #A80036; stroke-width: 1.5;" x1="539" x2="715" y1="472" y2="472"/><line style="stroke: #A80036; stroke-width: 1.5;" x1="539" x2="715" y1="480" y2="480"/><!--class Harmonic Analysis--><rect fill="#FEFECE" filter="url(#f7fqbtdtjabde)" height="48" id="Harmonic Analysis" style="stroke: #A80036; stroke-width: 1.5;" width="145" x="357.5" y="440"/><ellipse cx="372.5" cy="456" fill="#ADD1B2" rx="11" ry="11" style="stroke: #A80036; stroke-width: 1.0;"/><path d="M374.8438,451.6719 L375.0156,451.75 C375.2344,451.4375 375.4375,451.3438 375.7344,451.3438 C376.0313,451.3438 376.3125,451.4844 376.4688,451.75 C376.5625,451.9063 376.5781,452.0313 376.5781,452.4688 L376.5781,453.8906 C376.5781,454.3125 376.5469,454.5 376.4375,454.6563 C376.2656,454.875 376,455.0156 375.7344,455.0156 C375.5156,455.0156 375.2813,454.9063 375.1406,454.7656 C375,454.6406 374.9688,454.5156 374.9063,454.1094 C374.8125,453.7031 374.6406,453.4844 374.1563,453.2031 C373.6875,452.9531 373.0781,452.7969 372.5,452.7969 C370.7656,452.7969 369.5156,454.1094 369.5156,455.8906 L369.5156,456.9844 C369.5156,458.6875 370.8125,459.7813 372.8594,459.7813 C373.625,459.7813 374.3125,459.6563 374.7344,459.3906 C374.9219,459.2969 374.9219,459.2969 375.375,458.8125 C375.5625,458.625 375.7656,458.5469 375.9844,458.5469 C376.4531,458.5469 376.8438,458.9375 376.8438,459.3906 C376.8438,459.7813 376.5156,460.2344 375.9375,460.6406 C375.1875,461.1875 374.0313,461.4844 372.8125,461.4844 C369.9219,461.4844 367.8125,459.5938 367.8125,457.0156 L367.8125,455.8906 C367.8125,453.1719 369.8125,451.0938 372.4375,451.0938 C373.3125,451.0938 373.9063,451.2344 374.8438,451.6719 Z "/><text fill="#000000" font-family="sans-serif" font-size="12" lengthAdjust="spacingAndGlyphs" textLength="113" x="386.5" y="460.1543">Harmonic Analysis</text><line style="stroke: #A80036; stroke-width: 1.5;" x1="358.5" x2="501.5" y1="472" y2="472"/><line style="stroke: #A80036; stroke-width: 1.5;" x1="358.5" x2="501.5" y1="480" y2="480"/><!--class Differential Manifold--><rect fill="#FEFECE" filter="url(#f7fqbtdtjabde)" height="48" id="Differential Manifold" style="stroke: #A80036; stroke-width: 1.5;" width="156" x="157" y="548"/><ellipse cx="172" cy="564" fill="#ADD1B2" rx="11" ry="11" style="stroke: #A80036; stroke-width: 1.0;"/><path d="M174.3438,559.6719 L174.5156,559.75 C174.7344,559.4375 174.9375,559.3438 175.2344,559.3438 C175.5313,559.3438 175.8125,559.4844 175.9688,559.75 C176.0625,559.9063 176.0781,560.0313 176.0781,560.4688 L176.0781,561.8906 C176.0781,562.3125 176.0469,562.5 175.9375,562.6563 C175.7656,562.875 175.5,563.0156 175.2344,563.0156 C175.0156,563.0156 174.7813,562.9063 174.6406,562.7656 C174.5,562.6406 174.4688,562.5156 174.4063,562.1094 C174.3125,561.7031 174.1406,561.4844 173.6563,561.2031 C173.1875,560.9531 172.5781,560.7969 172,560.7969 C170.2656,560.7969 169.0156,562.1094 169.0156,563.8906 L169.0156,564.9844 C169.0156,566.6875 170.3125,567.7813 172.3594,567.7813 C173.125,567.7813 173.8125,567.6563 174.2344,567.3906 C174.4219,567.2969 174.4219,567.2969 174.875,566.8125 C175.0625,566.625 175.2656,566.5469 175.4844,566.5469 C175.9531,566.5469 176.3438,566.9375 176.3438,567.3906 C176.3438,567.7813 176.0156,568.2344 175.4375,568.6406 C174.6875,569.1875 173.5313,569.4844 172.3125,569.4844 C169.4219,569.4844 167.3125,567.5938 167.3125,565.0156 L167.3125,563.8906 C167.3125,561.1719 169.3125,559.0938 171.9375,559.0938 C172.8125,559.0938 173.4063,559.2344 174.3438,559.6719 Z "/><text fill="#000000" font-family="sans-serif" font-size="12" lengthAdjust="spacingAndGlyphs" textLength="124" x="186" y="568.1543">Differential Manifold</text><line style="stroke: #A80036; stroke-width: 1.5;" x1="158" x2="312" y1="580" y2="580"/><line style="stroke: #A80036; stroke-width: 1.5;" x1="158" x2="312" y1="588" y2="588"/><!--class Commutative Algebra--><rect fill="#FEFECE" filter="url(#f7fqbtdtjabde)" height="48" id="Commutative Algebra" style="stroke: #A80036; stroke-width: 1.5;" width="165" x="2382.5" y="224"/><ellipse cx="2397.5" cy="240" fill="#ADD1B2" rx="11" ry="11" style="stroke: #A80036; stroke-width: 1.0;"/><path d="M2399.8438,235.6719 L2400.0156,235.75 C2400.2344,235.4375 2400.4375,235.3438 2400.7344,235.3438 C2401.0313,235.3438 2401.3125,235.4844 2401.4688,235.75 C2401.5625,235.9063 2401.5781,236.0313 2401.5781,236.4688 L2401.5781,237.8906 C2401.5781,238.3125 2401.5469,238.5 2401.4375,238.6563 C2401.2656,238.875 2401,239.0156 2400.7344,239.0156 C2400.5156,239.0156 2400.2813,238.9063 2400.1406,238.7656 C2400,238.6406 2399.9688,238.5156 2399.9063,238.1094 C2399.8125,237.7031 2399.6406,237.4844 2399.1563,237.2031 C2398.6875,236.9531 2398.0781,236.7969 2397.5,236.7969 C2395.7656,236.7969 2394.5156,238.1094 2394.5156,239.8906 L2394.5156,240.9844 C2394.5156,242.6875 2395.8125,243.7813 2397.8594,243.7813 C2398.625,243.7813 2399.3125,243.6563 2399.7344,243.3906 C2399.9219,243.2969 2399.9219,243.2969 2400.375,242.8125 C2400.5625,242.625 2400.7656,242.5469 2400.9844,242.5469 C2401.4531,242.5469 2401.8438,242.9375 2401.8438,243.3906 C2401.8438,243.7813 2401.5156,244.2344 2400.9375,244.6406 C2400.1875,245.1875 2399.0313,245.4844 2397.8125,245.4844 C2394.9219,245.4844 2392.8125,243.5938 2392.8125,241.0156 L2392.8125,239.8906 C2392.8125,237.1719 2394.8125,235.0938 2397.4375,235.0938 C2398.3125,235.0938 2398.9063,235.2344 2399.8438,235.6719 Z "/><text fill="#000000" font-family="sans-serif" font-size="12" lengthAdjust="spacingAndGlyphs" textLength="133" x="2411.5" y="244.1543">Commutative Algebra</text><line style="stroke: #A80036; stroke-width: 1.5;" x1="2383.5" x2="2546.5" y1="256" y2="256"/><line style="stroke: #A80036; stroke-width: 1.5;" x1="2383.5" x2="2546.5" y1="264" y2="264"/><!--class Linear Topology--><rect fill="#FEFECE" filter="url(#f7fqbtdtjabde)" height="48" id="Linear Topology" style="stroke: #A80036; stroke-width: 1.5;" width="130" x="1366" y="224"/><ellipse cx="1381" cy="240" fill="#ADD1B2" rx="11" ry="11" style="stroke: #A80036; stroke-width: 1.0;"/><path d="M1383.3438,235.6719 L1383.5156,235.75 C1383.7344,235.4375 1383.9375,235.3438 1384.2344,235.3438 C1384.5313,235.3438 1384.8125,235.4844 1384.9688,235.75 C1385.0625,235.9063 1385.0781,236.0313 1385.0781,236.4688 L1385.0781,237.8906 C1385.0781,238.3125 1385.0469,238.5 1384.9375,238.6563 C1384.7656,238.875 1384.5,239.0156 1384.2344,239.0156 C1384.0156,239.0156 1383.7813,238.9063 1383.6406,238.7656 C1383.5,238.6406 1383.4688,238.5156 1383.4063,238.1094 C1383.3125,237.7031 1383.1406,237.4844 1382.6563,237.2031 C1382.1875,236.9531 1381.5781,236.7969 1381,236.7969 C1379.2656,236.7969 1378.0156,238.1094 1378.0156,239.8906 L1378.0156,240.9844 C1378.0156,242.6875 1379.3125,243.7813 1381.3594,243.7813 C1382.125,243.7813 1382.8125,243.6563 1383.2344,243.3906 C1383.4219,243.2969 1383.4219,243.2969 1383.875,242.8125 C1384.0625,242.625 1384.2656,242.5469 1384.4844,242.5469 C1384.9531,242.5469 1385.3438,242.9375 1385.3438,243.3906 C1385.3438,243.7813 1385.0156,244.2344 1384.4375,244.6406 C1383.6875,245.1875 1382.5313,245.4844 1381.3125,245.4844 C1378.4219,245.4844 1376.3125,243.5938 1376.3125,241.0156 L1376.3125,239.8906 C1376.3125,237.1719 1378.3125,235.0938 1380.9375,235.0938 C1381.8125,235.0938 1382.4063,235.2344 1383.3438,235.6719 Z "/><text fill="#000000" font-family="sans-serif" font-size="12" lengthAdjust="spacingAndGlyphs" textLength="98" x="1395" y="244.1543">Linear Topology</text><line style="stroke: #A80036; stroke-width: 1.5;" x1="1367" x2="1495" y1="256" y2="256"/><line style="stroke: #A80036; stroke-width: 1.5;" x1="1367" x2="1495" y1="264" y2="264"/><!--class Algebraic Topology--><rect fill="#FEFECE" filter="url(#f7fqbtdtjabde)" height="48" id="Algebraic Topology" style="stroke: #A80036; stroke-width: 1.5;" width="150" x="1438" y="332"/><ellipse cx="1453" cy="348" fill="#ADD1B2" rx="11" ry="11" style="stroke: #A80036; stroke-width: 1.0;"/><path d="M1455.3438,343.6719 L1455.5156,343.75 C1455.7344,343.4375 1455.9375,343.3438 1456.2344,343.3438 C1456.5313,343.3438 1456.8125,343.4844 1456.9688,343.75 C1457.0625,343.9063 1457.0781,344.0313 1457.0781,344.4688 L1457.0781,345.8906 C1457.0781,346.3125 1457.0469,346.5 1456.9375,346.6563 C1456.7656,346.875 1456.5,347.0156 1456.2344,347.0156 C1456.0156,347.0156 1455.7813,346.9063 1455.6406,346.7656 C1455.5,346.6406 1455.4688,346.5156 1455.4063,346.1094 C1455.3125,345.7031 1455.1406,345.4844 1454.6563,345.2031 C1454.1875,344.9531 1453.5781,344.7969 1453,344.7969 C1451.2656,344.7969 1450.0156,346.1094 1450.0156,347.8906 L1450.0156,348.9844 C1450.0156,350.6875 1451.3125,351.7813 1453.3594,351.7813 C1454.125,351.7813 1454.8125,351.6563 1455.2344,351.3906 C1455.4219,351.2969 1455.4219,351.2969 1455.875,350.8125 C1456.0625,350.625 1456.2656,350.5469 1456.4844,350.5469 C1456.9531,350.5469 1457.3438,350.9375 1457.3438,351.3906 C1457.3438,351.7813 1457.0156,352.2344 1456.4375,352.6406 C1455.6875,353.1875 1454.5313,353.4844 1453.3125,353.4844 C1450.4219,353.4844 1448.3125,351.5938 1448.3125,349.0156 L1448.3125,347.8906 C1448.3125,345.1719 1450.3125,343.0938 1452.9375,343.0938 C1453.8125,343.0938 1454.4063,343.2344 1455.3438,343.6719 Z "/><text fill="#000000" font-family="sans-serif" font-size="12" lengthAdjust="spacingAndGlyphs" textLength="118" x="1467" y="352.1543">Algebraic Topology</text><line style="stroke: #A80036; stroke-width: 1.5;" x1="1439" x2="1587" y1="364" y2="364"/><line style="stroke: #A80036; stroke-width: 1.5;" x1="1439" x2="1587" y1="372" y2="372"/><!--class Algebraic Geometry--><rect fill="#FEFECE" filter="url(#f7fqbtdtjabde)" height="48" id="Algebraic Geometry" style="stroke: #A80036; stroke-width: 1.5;" width="154" x="2252" y="332"/><ellipse cx="2267" cy="348" fill="#ADD1B2" rx="11" ry="11" style="stroke: #A80036; stroke-width: 1.0;"/><path d="M2269.3438,343.6719 L2269.5156,343.75 C2269.7344,343.4375 2269.9375,343.3438 2270.2344,343.3438 C2270.5313,343.3438 2270.8125,343.4844 2270.9688,343.75 C2271.0625,343.9063 2271.0781,344.0313 2271.0781,344.4688 L2271.0781,345.8906 C2271.0781,346.3125 2271.0469,346.5 2270.9375,346.6563 C2270.7656,346.875 2270.5,347.0156 2270.2344,347.0156 C2270.0156,347.0156 2269.7813,346.9063 2269.6406,346.7656 C2269.5,346.6406 2269.4688,346.5156 2269.4063,346.1094 C2269.3125,345.7031 2269.1406,345.4844 2268.6563,345.2031 C2268.1875,344.9531 2267.5781,344.7969 2267,344.7969 C2265.2656,344.7969 2264.0156,346.1094 2264.0156,347.8906 L2264.0156,348.9844 C2264.0156,350.6875 2265.3125,351.7813 2267.3594,351.7813 C2268.125,351.7813 2268.8125,351.6563 2269.2344,351.3906 C2269.4219,351.2969 2269.4219,351.2969 2269.875,350.8125 C2270.0625,350.625 2270.2656,350.5469 2270.4844,350.5469 C2270.9531,350.5469 2271.3438,350.9375 2271.3438,351.3906 C2271.3438,351.7813 2271.0156,352.2344 2270.4375,352.6406 C2269.6875,353.1875 2268.5313,353.4844 2267.3125,353.4844 C2264.4219,353.4844 2262.3125,351.5938 2262.3125,349.0156 L2262.3125,347.8906 C2262.3125,345.1719 2264.3125,343.0938 2266.9375,343.0938 C2267.8125,343.0938 2268.4063,343.2344 2269.3438,343.6719 Z "/><text fill="#000000" font-family="sans-serif" font-size="12" lengthAdjust="spacingAndGlyphs" textLength="122" x="2281" y="352.1543">Algebraic Geometry</text><line style="stroke: #A80036; stroke-width: 1.5;" x1="2253" x2="2405" y1="364" y2="364"/><line style="stroke: #A80036; stroke-width: 1.5;" x1="2253" x2="2405" y1="372" y2="372"/><!--class Homological Geometry--><rect fill="#FEFECE" filter="url(#f7fqbtdtjabde)" height="48" id="Homological Geometry" style="stroke: #A80036; stroke-width: 1.5;" width="172" x="2104" y="224"/><ellipse cx="2119" cy="240" fill="#ADD1B2" rx="11" ry="11" style="stroke: #A80036; stroke-width: 1.0;"/><path d="M2121.3438,235.6719 L2121.5156,235.75 C2121.7344,235.4375 2121.9375,235.3438 2122.2344,235.3438 C2122.5313,235.3438 2122.8125,235.4844 2122.9688,235.75 C2123.0625,235.9063 2123.0781,236.0313 2123.0781,236.4688 L2123.0781,237.8906 C2123.0781,238.3125 2123.0469,238.5 2122.9375,238.6563 C2122.7656,238.875 2122.5,239.0156 2122.2344,239.0156 C2122.0156,239.0156 2121.7813,238.9063 2121.6406,238.7656 C2121.5,238.6406 2121.4688,238.5156 2121.4063,238.1094 C2121.3125,237.7031 2121.1406,237.4844 2120.6563,237.2031 C2120.1875,236.9531 2119.5781,236.7969 2119,236.7969 C2117.2656,236.7969 2116.0156,238.1094 2116.0156,239.8906 L2116.0156,240.9844 C2116.0156,242.6875 2117.3125,243.7813 2119.3594,243.7813 C2120.125,243.7813 2120.8125,243.6563 2121.2344,243.3906 C2121.4219,243.2969 2121.4219,243.2969 2121.875,242.8125 C2122.0625,242.625 2122.2656,242.5469 2122.4844,242.5469 C2122.9531,242.5469 2123.3438,242.9375 2123.3438,243.3906 C2123.3438,243.7813 2123.0156,244.2344 2122.4375,244.6406 C2121.6875,245.1875 2120.5313,245.4844 2119.3125,245.4844 C2116.4219,245.4844 2114.3125,243.5938 2114.3125,241.0156 L2114.3125,239.8906 C2114.3125,237.1719 2116.3125,235.0938 2118.9375,235.0938 C2119.8125,235.0938 2120.4063,235.2344 2121.3438,235.6719 Z "/><text fill="#000000" font-family="sans-serif" font-size="12" lengthAdjust="spacingAndGlyphs" textLength="140" x="2133" y="244.1543">Homological Geometry</text><line style="stroke: #A80036; stroke-width: 1.5;" x1="2105" x2="2275" y1="256" y2="256"/><line style="stroke: #A80036; stroke-width: 1.5;" x1="2105" x2="2275" y1="264" y2="264"/><!--class Riemann Geometry--><rect fill="#FEFECE" filter="url(#f7fqbtdtjabde)" height="48" id="Riemann Geometry" style="stroke: #A80036; stroke-width: 1.5;" width="150" x="161" y="656"/><ellipse cx="176" cy="672" fill="#ADD1B2" rx="11" ry="11" style="stroke: #A80036; stroke-width: 1.0;"/><path d="M178.3438,667.6719 L178.5156,667.75 C178.7344,667.4375 178.9375,667.3438 179.2344,667.3438 C179.5313,667.3438 179.8125,667.4844 179.9688,667.75 C180.0625,667.9063 180.0781,668.0313 180.0781,668.4688 L180.0781,669.8906 C180.0781,670.3125 180.0469,670.5 179.9375,670.6563 C179.7656,670.875 179.5,671.0156 179.2344,671.0156 C179.0156,671.0156 178.7813,670.9063 178.6406,670.7656 C178.5,670.6406 178.4688,670.5156 178.4063,670.1094 C178.3125,669.7031 178.1406,669.4844 177.6563,669.2031 C177.1875,668.9531 176.5781,668.7969 176,668.7969 C174.2656,668.7969 173.0156,670.1094 173.0156,671.8906 L173.0156,672.9844 C173.0156,674.6875 174.3125,675.7813 176.3594,675.7813 C177.125,675.7813 177.8125,675.6563 178.2344,675.3906 C178.4219,675.2969 178.4219,675.2969 178.875,674.8125 C179.0625,674.625 179.2656,674.5469 179.4844,674.5469 C179.9531,674.5469 180.3438,674.9375 180.3438,675.3906 C180.3438,675.7813 180.0156,676.2344 179.4375,676.6406 C178.6875,677.1875 177.5313,677.4844 176.3125,677.4844 C173.4219,677.4844 171.3125,675.5938 171.3125,673.0156 L171.3125,671.8906 C171.3125,669.1719 173.3125,667.0938 175.9375,667.0938 C176.8125,667.0938 177.4063,667.2344 178.3438,667.6719 Z "/><text fill="#000000" font-family="sans-serif" font-size="12" lengthAdjust="spacingAndGlyphs" textLength="118" x="190" y="676.1543">Riemann Geometry</text><line style="stroke: #A80036; stroke-width: 1.5;" x1="162" x2="310" y1="688" y2="688"/><line style="stroke: #A80036; stroke-width: 1.5;" x1="162" x2="310" y1="696" y2="696"/><!--class Complex Geometry--><rect fill="#FEFECE" filter="url(#f7fqbtdtjabde)" height="48" id="Complex Geometry" style="stroke: #A80036; stroke-width: 1.5;" width="148" x="227" y="764"/><ellipse cx="242" cy="780" fill="#ADD1B2" rx="11" ry="11" style="stroke: #A80036; stroke-width: 1.0;"/><path d="M244.3438,775.6719 L244.5156,775.75 C244.7344,775.4375 244.9375,775.3438 245.2344,775.3438 C245.5313,775.3438 245.8125,775.4844 245.9688,775.75 C246.0625,775.9063 246.0781,776.0313 246.0781,776.4688 L246.0781,777.8906 C246.0781,778.3125 246.0469,778.5 245.9375,778.6563 C245.7656,778.875 245.5,779.0156 245.2344,779.0156 C245.0156,779.0156 244.7813,778.9063 244.6406,778.7656 C244.5,778.6406 244.4688,778.5156 244.4063,778.1094 C244.3125,777.7031 244.1406,777.4844 243.6563,777.2031 C243.1875,776.9531 242.5781,776.7969 242,776.7969 C240.2656,776.7969 239.0156,778.1094 239.0156,779.8906 L239.0156,780.9844 C239.0156,782.6875 240.3125,783.7813 242.3594,783.7813 C243.125,783.7813 243.8125,783.6563 244.2344,783.3906 C244.4219,783.2969 244.4219,783.2969 244.875,782.8125 C245.0625,782.625 245.2656,782.5469 245.4844,782.5469 C245.9531,782.5469 246.3438,782.9375 246.3438,783.3906 C246.3438,783.7813 246.0156,784.2344 245.4375,784.6406 C244.6875,785.1875 243.5313,785.4844 242.3125,785.4844 C239.4219,785.4844 237.3125,783.5938 237.3125,781.0156 L237.3125,779.8906 C237.3125,777.1719 239.3125,775.0938 241.9375,775.0938 C242.8125,775.0938 243.4063,775.2344 244.3438,775.6719 Z "/><text fill="#000000" font-family="sans-serif" font-size="12" lengthAdjust="spacingAndGlyphs" textLength="116" x="256" y="784.1543">Complex Geometry</text><line style="stroke: #A80036; stroke-width: 1.5;" x1="228" x2="374" y1="796" y2="796"/><line style="stroke: #A80036; stroke-width: 1.5;" x1="228" x2="374" y1="804" y2="804"/><!--class Algebraic Number Theory--><rect fill="#FEFECE" filter="url(#f7fqbtdtjabde)" height="48" id="Algebraic Number Theory" style="stroke: #A80036; stroke-width: 1.5;" width="189" x="1065.5" y="332"/><ellipse cx="1080.5" cy="348" fill="#ADD1B2" rx="11" ry="11" style="stroke: #A80036; stroke-width: 1.0;"/><path d="M1082.8438,343.6719 L1083.0156,343.75 C1083.2344,343.4375 1083.4375,343.3438 1083.7344,343.3438 C1084.0313,343.3438 1084.3125,343.4844 1084.4688,343.75 C1084.5625,343.9063 1084.5781,344.0313 1084.5781,344.4688 L1084.5781,345.8906 C1084.5781,346.3125 1084.5469,346.5 1084.4375,346.6563 C1084.2656,346.875 1084,347.0156 1083.7344,347.0156 C1083.5156,347.0156 1083.2813,346.9063 1083.1406,346.7656 C1083,346.6406 1082.9688,346.5156 1082.9063,346.1094 C1082.8125,345.7031 1082.6406,345.4844 1082.1563,345.2031 C1081.6875,344.9531 1081.0781,344.7969 1080.5,344.7969 C1078.7656,344.7969 1077.5156,346.1094 1077.5156,347.8906 L1077.5156,348.9844 C1077.5156,350.6875 1078.8125,351.7813 1080.8594,351.7813 C1081.625,351.7813 1082.3125,351.6563 1082.7344,351.3906 C1082.9219,351.2969 1082.9219,351.2969 1083.375,350.8125 C1083.5625,350.625 1083.7656,350.5469 1083.9844,350.5469 C1084.4531,350.5469 1084.8438,350.9375 1084.8438,351.3906 C1084.8438,351.7813 1084.5156,352.2344 1083.9375,352.6406 C1083.1875,353.1875 1082.0313,353.4844 1080.8125,353.4844 C1077.9219,353.4844 1075.8125,351.5938 1075.8125,349.0156 L1075.8125,347.8906 C1075.8125,345.1719 1077.8125,343.0938 1080.4375,343.0938 C1081.3125,343.0938 1081.9063,343.2344 1082.8438,343.6719 Z "/><text fill="#000000" font-family="sans-serif" font-size="12" lengthAdjust="spacingAndGlyphs" textLength="157" x="1094.5" y="352.1543">Algebraic Number Theory</text><line style="stroke: #A80036; stroke-width: 1.5;" x1="1066.5" x2="1253.5" y1="364" y2="364"/><line style="stroke: #A80036; stroke-width: 1.5;" x1="1066.5" x2="1253.5" y1="372" y2="372"/><!--link Mathematical Analysis to Differential Geometry--><path d="M613.92,141.568 C517.629,145.45 358.523,161.85 238,224 C192.932,247.24 153.072,290.74 128.783,321.215 " fill="none" id="Mathematical Analysis-Differential Geometry" style="stroke: #A80036; stroke-width: 1.0;"/><polygon fill="#FFFFFF" points="120.558,331.792,127.3991,329.5118,127.9255,322.3199,121.0844,324.6001,120.558,331.792" style="stroke: #A80036; stroke-width: 1.0;"/><!--link Mathematical Analysis to Introduction to Tensor--><path d="M757.803,164 C799.122,180.162 854.627,201.873 898.507,219.036 " fill="none" id="Mathematical Analysis-Introduction to Tensor" style="stroke: #A80036; stroke-width: 1.0;"/><polygon fill="#FFFFFF" points="910.844,223.862,906.7136,217.951,899.6687,219.4903,903.7991,225.4012,910.844,223.862" style="stroke: #A80036; stroke-width: 1.0;"/><!--link Mathematical Analysis to Topology--><path d="M784.269,145.318 C987.963,156.118 1498.28,186.169 1665,224 C1666.38,224.313 1667.77,224.65 1669.17,225.009 " fill="none" id="Mathematical Analysis-Topology" style="stroke: #A80036; stroke-width: 1.0;"/><polygon fill="#FFFFFF" points="1681.79,228.722,1677.158,223.1953,1670.2749,225.3453,1674.9069,230.872,1681.79,228.722" style="stroke: #A80036; stroke-width: 1.0;"/><!--link Mathematical Analysis to Probability--><path d="M784.343,157.099 C860.591,172.154 975.05,196.413 1073,224 C1074.85,224.521 1076.72,225.064 1078.61,225.624 " fill="none" id="Mathematical Analysis-Probability" style="stroke: #A80036; stroke-width: 1.0;"/><polygon fill="#FFFFFF" points="1091.17,229.528,1086.627,223.9279,1079.7104,225.9675,1084.2534,231.5676,1091.17,229.528" style="stroke: #A80036; stroke-width: 1.0;"/><!--link Mathematical Analysis to ODE--><path d="M613.986,154.431 C538.576,167.702 426.112,190.84 332,224 C330.06,224.683 328.096,225.426 326.126,226.212 " fill="none" id="Mathematical Analysis-ODE" style="stroke: #A80036; stroke-width: 1.0;"/><polygon fill="#FFFFFF" points="314.134,231.446,321.2331,232.712,325.1321,226.6459,318.033,225.3799,314.134,231.446" style="stroke: #A80036; stroke-width: 1.0;"/><!--link Mathematical Analysis to Complex Analysis--><path d="M685.764,164 C677.666,178.072 667.148,196.349 658.044,212.17 " fill="none" id="Mathematical Analysis-Complex Analysis" style="stroke: #A80036; stroke-width: 1.0;"/><polygon fill="#FFFFFF" points="651.421,223.678,657.8805,220.4725,657.406,213.2771,650.9465,216.4825,651.421,223.678" style="stroke: #A80036; stroke-width: 1.0;"/><!--link Mathematical Analysis to Real Analysis--><path d="M635.423,164 C588.045,181.141 523.415,204.522 474.823,222.101 " fill="none" id="Mathematical Analysis-Real Analysis" style="stroke: #A80036; stroke-width: 1.0;"/><polygon fill="#FFFFFF" points="462.52,226.552,469.523,228.272,473.8041,222.4693,466.8012,220.7493,462.52,226.552" style="stroke: #A80036; stroke-width: 1.0;"/><!--link Mathematical Analysis to Functional Analysis--><path d="M625.086,164.088 C596.737,176.957 567.303,196.165 551,224 C533.641,253.638 546.167,292.51 559.948,320.194 " fill="none" id="Mathematical Analysis-Functional Analysis" style="stroke: #A80036; stroke-width: 1.0;"/><polygon fill="#FFFFFF" points="566.056,331.683,566.7719,324.5075,560.4237,321.0869,559.7078,328.2624,566.056,331.683" style="stroke: #A80036; stroke-width: 1.0;"/><!--link Linear Algebra to Graph Theory--><path d="M1252.25,155.847 C1317.38,171.843 1423.3,198.454 1514,224 C1515.46,224.412 1516.94,224.832 1518.43,225.258 " fill="none" id="Linear Algebra-Graph Theory" style="stroke: #A80036; stroke-width: 1.0;"/><polygon fill="#FFFFFF" points="1530.94,228.905,1526.3012,223.384,1519.4207,225.5426,1524.0595,231.0635,1530.94,228.905" style="stroke: #A80036; stroke-width: 1.0;"/><!--link Linear Algebra to Combinatorics--><path d="M1252.2,146.038 C1368.98,156.242 1631.37,182.018 1849,224 C1853.7,224.906 1858.51,225.919 1863.35,227.002 " fill="none" id="Linear Algebra-Combinatorics" style="stroke: #A80036; stroke-width: 1.0;"/><polygon fill="#FFFFFF" points="1876.17,230.004,1871.243,224.7386,1864.4876,227.2614,1869.4146,232.5268,1876.17,230.004" style="stroke: #A80036; stroke-width: 1.0;"/><!--link Linear Algebra to Introduction to Tensor--><path d="M1143.05,164 C1110,179.85 1065.83,201.038 1030.38,218.039 " fill="none" id="Linear Algebra-Introduction to Tensor" style="stroke: #A80036; stroke-width: 1.0;"/><polygon fill="#FFFFFF" points="1018.24,223.862,1025.3802,224.8706,1029.0575,218.6675,1021.9172,217.6589,1018.24,223.862" style="stroke: #A80036; stroke-width: 1.0;"/><!--link Linear Algebra to Probability--><path d="M1179.93,164 C1173.23,177.934 1164.54,195.991 1156.98,211.704 " fill="none" id="Linear Algebra-Probability" style="stroke: #A80036; stroke-width: 1.0;"/><polygon fill="#FFFFFF" points="1151.22,223.678,1157.4261,220.0059,1156.4235,212.8649,1150.2174,216.5369,1151.22,223.678" style="stroke: #A80036; stroke-width: 1.0;"/><!--link Linear Algebra to ODE--><path d="M1129.7,144.072 C959.288,153.062 482.565,181.402 332,224 C330.142,224.526 328.269,225.122 326.396,225.775 " fill="none" id="Linear Algebra-ODE" style="stroke: #A80036; stroke-width: 1.0;"/><polygon fill="#FFFFFF" points="314.196,230.727,321.26,232.1761,325.3146,226.2128,318.2506,224.7637,314.196,230.727" style="stroke: #A80036; stroke-width: 1.0;"/><!--link Linear Algebra to Complex Analysis--><path d="M1129.97,152.698 C1030.27,171.809 832.363,209.744 720.33,231.219 " fill="none" id="Linear Algebra-Complex Analysis" style="stroke: #A80036; stroke-width: 1.0;"/><polygon fill="#FFFFFF" points="707.438,233.69,714.0837,236.489,719.2235,231.431,712.5777,228.632,707.438,233.69" style="stroke: #A80036; stroke-width: 1.0;"/><!--link Introduction to Algebra to Algebra--><path d="M2010.28,56 C2017.12,69.934 2025.98,87.991 2033.68,103.704 " fill="none" id="Introduction to Algebra-Algebra" style="stroke: #A80036; stroke-width: 1.0;"/><polygon fill="#FFFFFF" points="2039.56,115.678,2040.5086,108.5296,2034.2748,104.9046,2033.3263,112.053,2039.56,115.678" style="stroke: #A80036; stroke-width: 1.0;"/><!--link Introduction to Algebra to Combinatorics--><path d="M1992.25,56.309 C1981.44,93.615 1960.18,167.005 1947.41,211.061 " fill="none" id="Introduction to Algebra-Combinatorics" style="stroke: #A80036; stroke-width: 1.0;"/><polygon fill="#FFFFFF" points="1943.74,223.72,1949.2516,219.07,1947.0791,212.1939,1941.5675,216.8439,1943.74,223.72" style="stroke: #A80036; stroke-width: 1.0;"/><!--link Analytic Geometry to Differential Geometry--><path d="M83.6416,272 C86.9915,285.658 91.3134,303.278 95.1128,318.768 " fill="none" id="Analytic Geometry-Differential Geometry" style="stroke: #A80036; stroke-width: 1.0;"/><polygon fill="#FFFFFF" points="98.2796,331.678,100.735,324.8978,95.4207,320.0235,92.9653,326.8037,98.2796,331.678" style="stroke: #A80036; stroke-width: 1.0;"/><!--link Algebra to Topology--><path d="M2010.82,154.104 C1953.5,172.799 1847.99,207.212 1782.73,228.498 " fill="none" id="Algebra-Topology" style="stroke: #A80036; stroke-width: 1.0;"/><polygon fill="#FFFFFF" points="1770.24,232.572,1777.1843,234.5155,1781.6491,228.8529,1774.7049,226.9094,1770.24,232.572" style="stroke: #A80036; stroke-width: 1.0;"/><!--link ODE to Differential Geometry--><path d="M255.919,266.031 C228.774,281.928 187.67,306 155.06,325.098 " fill="none" id="ODE-Differential Geometry" style="stroke: #A80036; stroke-width: 1.0;"/><polygon fill="#FFFFFF" points="143.471,331.884,150.6699,332.3035,153.826,325.8198,146.6271,325.4002,143.471,331.884" style="stroke: #A80036; stroke-width: 1.0;"/><!--link ODE to PDE--><path d="M283.877,272.215 C282.83,298.42 281.738,342.313 284,380 C284.923,395.371 286.798,412.257 288.678,426.762 " fill="none" id="ODE-PDE" style="stroke: #A80036; stroke-width: 1.0;"/><polygon fill="#FFFFFF" points="290.451,439.812,293.6069,433.3281,288.8356,427.9212,285.6797,434.4051,290.451,439.812" style="stroke: #A80036; stroke-width: 1.0;"/><!--link Complex Analysis to Advanced Real Analysis--><path d="M651.919,272.151 C665.877,298.297 683.976,342.139 674,380 C669.517,397.014 660.659,414.202 651.83,428.49 " fill="none" id="Complex Analysis-Advanced Real Analysis" style="stroke: #A80036; stroke-width: 1.0;"/><polygon fill="#FFFFFF" points="644.517,439.741,651.1408,436.8906,651.0573,429.68,644.4335,432.5304,644.517,439.741" style="stroke: #A80036; stroke-width: 1.0;"/><!--link Complex Analysis to Functional Analysis--><path d="M625.632,272 C618.065,286.072 608.237,304.349 599.729,320.17 " fill="none" id="Complex Analysis-Functional Analysis" style="stroke: #A80036; stroke-width: 1.0;"/><polygon fill="#FFFFFF" points="593.541,331.678,599.9056,328.288,599.2243,321.1092,592.8597,324.4992,593.541,331.678" style="stroke: #A80036; stroke-width: 1.0;"/><!--link Real Analysis to Advanced Real Analysis--><path d="M416.275,272.119 C429.644,300.233 455.218,347.899 488,380 C510.03,401.572 538.703,419.897 564.281,433.797 " fill="none" id="Real Analysis-Advanced Real Analysis" style="stroke: #A80036; stroke-width: 1.0;"/><polygon fill="#FFFFFF" points="575.78,439.867,572.3413,433.5286,565.1679,434.2649,568.6066,440.6033,575.78,439.867" style="stroke: #A80036; stroke-width: 1.0;"/><!--link Real Analysis to Functional Analysis--><path d="M443.972,272 C469.569,287.504 503.596,308.115 531.338,324.919 " fill="none" id="Real Analysis-Functional Analysis" style="stroke: #A80036; stroke-width: 1.0;"/><polygon fill="#FFFFFF" points="542.8,331.862,539.7408,325.332,532.5365,325.6443,535.5957,332.1743,542.8,331.862" style="stroke: #A80036; stroke-width: 1.0;"/><!--link Real Analysis to Harmonic Analysis--><path d="M408.614,272.309 C412.789,309.534 420.993,382.689 425.937,426.776 " fill="none" id="Real Analysis-Harmonic Analysis" style="stroke: #A80036; stroke-width: 1.0;"/><polygon fill="#FFFFFF" points="427.389,439.72,430.6948,433.3113,426.0505,427.7949,422.7447,434.2036,427.389,439.72" style="stroke: #A80036; stroke-width: 1.0;"/><!--link Real Analysis to PDE--><path d="M393.801,272.309 C374.108,309.936 335.203,384.273 312.216,428.194 " fill="none" id="Real Analysis-PDE" style="stroke: #A80036; stroke-width: 1.0;"/><polygon fill="#FFFFFF" points="306.184,439.72,312.5102,436.2589,311.7485,429.0881,305.4223,432.5492,306.184,439.72" style="stroke: #A80036; stroke-width: 1.0;"/><!--link Differential Geometry to Differential Manifold--><path d="M118.269,380.309 C141.351,418.017 187.002,492.591 213.866,536.475 " fill="none" id="Differential Geometry-Differential Manifold" style="stroke: #A80036; stroke-width: 1.0;"/><polygon fill="#FFFFFF" points="220.749,547.72,221.0279,540.5143,214.4838,537.4854,214.2049,544.6911,220.749,547.72" style="stroke: #A80036; stroke-width: 1.0;"/><!--link Functional Analysis to Advanced Real Analysis--><path d="M590.981,380 C597.028,393.934 604.864,411.991 611.683,427.704 " fill="none" id="Functional Analysis-Advanced Real Analysis" style="stroke: #A80036; stroke-width: 1.0;"/><polygon fill="#FFFFFF" points="616.879,439.678,618.1603,432.5817,612.1027,428.6695,610.8213,435.7659,616.879,439.678" style="stroke: #A80036; stroke-width: 1.0;"/><!--link Functional Analysis to Harmonic Analysis--><path d="M548.235,380 C526.445,395.297 497.574,415.564 473.816,432.242 " fill="none" id="Functional Analysis-Harmonic Analysis" style="stroke: #A80036; stroke-width: 1.0;"/><polygon fill="#FFFFFF" points="462.961,439.862,470.17,439.6882,472.7822,432.9668,465.5732,433.1407,462.961,439.862" style="stroke: #A80036; stroke-width: 1.0;"/><!--link Functional Analysis to PDE--><path d="M505.946,380.025 C457.902,395.452 394.569,417.079 340,440 C338.338,440.698 336.652,441.429 334.957,442.183 " fill="none" id="Functional Analysis-PDE" style="stroke: #A80036; stroke-width: 1.0;"/><polygon fill="#FFFFFF" points="322.931,447.81,330.0608,448.8898,333.7998,442.7238,326.67,441.644,322.931,447.81" style="stroke: #A80036; stroke-width: 1.0;"/><!--link PDE to Differential Manifold--><path d="M281.198,488 C273.366,502.072 263.192,520.349 254.387,536.17 " fill="none" id="PDE-Differential Manifold" style="stroke: #A80036; stroke-width: 1.0;"/><polygon fill="#FFFFFF" points="247.981,547.678,254.394,544.3804,253.8166,537.1925,247.4036,540.4901,247.981,547.678" style="stroke: #A80036; stroke-width: 1.0;"/><!--link Algebra to Commutative Algebra--><path d="M2091.07,151.26 C2154.9,167.602 2281.42,199.997 2369.52,222.554 " fill="none" id="Algebra-Commutative Algebra" style="stroke: #A80036; stroke-width: 1.0;"/><polygon fill="#FFFFFF" points="2382.23,225.808,2377.4055,220.4485,2370.6027,222.8405,2375.4272,228.2,2382.23,225.808" style="stroke: #A80036; stroke-width: 1.0;"/><!--link Linear Topology to Algebraic Topology--><path d="M1448.79,272 C1459.89,286.348 1474.37,305.068 1486.77,321.098 " fill="none" id="Linear Topology-Algebraic Topology" style="stroke: #A80036; stroke-width: 1.0;"/><polygon fill="#FFFFFF" points="1494.96,331.678,1494.4489,324.485,1487.6126,322.1903,1488.1238,329.3833,1494.96,331.678" style="stroke: #A80036; stroke-width: 1.0;"/><!--link Mathematical Analysis to Algebraic Topology--><path d="M729.073,164.135 C750.568,180.718 780.145,203.632 806,224 C832.826,245.133 834.561,258.665 866,272 C916.405,293.38 1259.87,329.823 1424.87,346.371 " fill="none" id="Mathematical Analysis-Algebraic Topology" style="stroke: #A80036; stroke-width: 1.0;"/><polygon fill="#FFFFFF" points="1437.87,347.67,1432.3,343.0901,1425.9301,346.4701,1431.5001,351.05,1437.87,347.67" style="stroke: #A80036; stroke-width: 1.0;"/><!--link Algebra to Algebraic Topology--><path d="M2051.68,164.002 C2051.2,193.594 2045.58,244.454 2015,272 C1955.57,325.532 1729.02,344.861 1601.53,351.59 " fill="none" id="Algebra-Algebraic Topology" style="stroke: #A80036; stroke-width: 1.0;"/><polygon fill="#FFFFFF" points="1588.38,352.257,1594.5745,355.9486,1600.3647,351.6504,1594.1701,347.9588,1588.38,352.257" style="stroke: #A80036; stroke-width: 1.0;"/><!--link Topology to Algebraic Topology--><path d="M1681.87,270.963 C1649.82,286.911 1606.14,308.648 1571.23,326.019 " fill="none" id="Topology-Algebraic Topology" style="stroke: #A80036; stroke-width: 1.0;"/><polygon fill="#FFFFFF" points="1559.29,331.965,1566.4433,332.876,1570.0355,326.6232,1562.8822,325.7123,1559.29,331.965" style="stroke: #A80036; stroke-width: 1.0;"/><!--link Linear Algebra to Algebraic Geometry--><path d="M1252.13,140.502 C1362.8,141.532 1602.13,152.694 1788,224 C1823.56,237.643 1823.69,257.708 1859,272 C1984.75,322.903 2141.89,342.645 2238.84,350.263 " fill="none" id="Linear Algebra-Algebraic Geometry" style="stroke: #A80036; stroke-width: 1.0;"/><polygon fill="#FFFFFF" points="2251.82,351.239,2246.1357,346.8019,2239.8535,350.3423,2245.5379,354.7795,2251.82,351.239" style="stroke: #A80036; stroke-width: 1.0;"/><!--link Algebra to Algebraic Geometry--><path d="M2091.21,143.406 C2145.13,148.834 2240.29,166.501 2294,224 C2317.75,249.428 2325.74,289.165 2328.26,318.21 " fill="none" id="Algebra-Algebraic Geometry" style="stroke: #A80036; stroke-width: 1.0;"/><polygon fill="#FFFFFF" points="2329.1,331.5,2332.7149,325.2604,2328.3455,319.5237,2324.7307,325.7634,2329.1,331.5" style="stroke: #A80036; stroke-width: 1.0;"/><!--link Commutative Algebra to Algebraic Geometry--><path d="M2435.49,272 C2416.11,287.106 2390.51,307.06 2369.26,323.617 " fill="none" id="Commutative Algebra-Algebraic Geometry" style="stroke: #A80036; stroke-width: 1.0;"/><polygon fill="#FFFFFF" points="2358.92,331.678,2366.1115,331.1468,2368.3872,324.3042,2361.1957,324.8354,2358.92,331.678" style="stroke: #A80036; stroke-width: 1.0;"/><!--link Algebra to Homological Geometry--><path d="M2081.16,164 C2100.97,179.106 2127.14,199.06 2148.85,215.617 " fill="none" id="Algebra-Homological Geometry" style="stroke: #A80036; stroke-width: 1.0;"/><polygon fill="#FFFFFF" points="2159.42,223.678,2157.0757,216.8586,2149.8792,216.3998,2152.2235,223.2192,2159.42,223.678" style="stroke: #A80036; stroke-width: 1.0;"/><!--link Differential Manifold to Riemann Geometry--><path d="M235.217,596 C235.345,609.52 235.509,626.922 235.654,642.298 " fill="none" id="Differential Manifold-Riemann Geometry" style="stroke: #A80036; stroke-width: 1.0;"/><polygon fill="#FFFFFF" points="235.78,655.678,239.7231,649.6405,235.6666,643.6785,231.7235,649.7161,235.78,655.678" style="stroke: #A80036; stroke-width: 1.0;"/><!--link Riemann Geometry to Complex Geometry--><path d="M250.104,704 C258.733,718.0716 269.941,736.3494 279.642,752.1698 " fill="none" id="Riemann Geometry-Complex Geometry" style="stroke: #A80036; stroke-width: 1.0;"/><polygon fill="#FFFFFF" points="286.699,763.6784,286.9726,756.4725,280.4262,753.4484,280.1526,760.6543,286.699,763.6784" style="stroke: #A80036; stroke-width: 1.0;"/><!--link Differential Geometry to Complex Geometry--><path d="M99.7481,380.175 C90.1366,439.82 72.7076,601.146 143,704 C160.209,729.1809 187.544,747.2685 214.673,759.9948 " fill="none" id="Differential Geometry-Complex Geometry" style="stroke: #A80036; stroke-width: 1.0;"/><polygon fill="#FFFFFF" points="226.67,765.298,222.7994,759.2137,215.6944,760.4465,219.5651,766.5308,226.67,765.298" style="stroke: #A80036; stroke-width: 1.0;"/><!--link Complex Analysis to Complex Geometry--><path d="M667.283,272.217 C709.12,308.227 781,381.898 781,463 C781,463 781,463 781,573 C781,743.0382 526.621,778.9179 388.229,785.8559 " fill="none" id="Complex Analysis-Complex Geometry" style="stroke: #A80036; stroke-width: 1.0;"/><polygon fill="#FFFFFF" points="375.211,786.4406,381.3847,790.1669,387.1989,785.9013,381.0252,782.175,375.211,786.4406" style="stroke: #A80036; stroke-width: 1.0;"/><!--link PDE to Complex Geometry--><path d="M307.088,488.119 C315.479,504.316 325.596,526.777 330,548 C334.331,568.868 334.684,664.229 328,704 C325.327,719.903 320.211,736.9276 315.144,751.393 " fill="none" id="PDE-Complex Geometry" style="stroke: #A80036; stroke-width: 1.0;"/><polygon fill="#FFFFFF" points="310.576,763.8524,316.3968,759.5958,314.7064,752.5856,308.8856,756.8422,310.576,763.8524" style="stroke: #A80036; stroke-width: 1.0;"/><!--link Algebra to Algebraic Number Theory--><path d="M2010.89,143.189 C1880.8,150.683 1471.95,177.455 1349,224 C1289.19,246.642 1230.23,292.24 1194.47,323.201 " fill="none" id="Algebra-Algebraic Number Theory" style="stroke: #A80036; stroke-width: 1.0;"/><polygon fill="#FFFFFF" points="1184.58,331.905,1191.7269,330.9448,1193.5894,323.9784,1186.4425,324.9386,1184.58,331.905" style="stroke: #A80036; stroke-width: 1.0;"/><!--link Linear Algebra to Algebraic Number Theory--><path d="M1198.65,164.071 C1206.27,190.518 1215.57,234.988 1206,272 C1201.62,288.947 1192.95,306.124 1184.31,320.421 " fill="none" id="Linear Algebra-Algebraic Number Theory" style="stroke: #A80036; stroke-width: 1.0;"/><polygon fill="#FFFFFF" points="1177.15,331.685,1183.7442,328.7667,1183.5866,321.5573,1176.9924,324.4756,1177.15,331.685" style="stroke: #A80036; stroke-width: 1.0;"/><!--link Complex Analysis to Algebraic Number Theory--><path d="M707.135,265.937 C716.159,268.038 725.291,270.109 734,272 C842.034,295.455 966.161,319.287 1052.45,335.361 " fill="none" id="Complex Analysis-Algebraic Number Theory" style="stroke: #A80036; stroke-width: 1.0;"/><polygon fill="#FFFFFF" points="1065.43,337.774,1060.2605,332.7465,1053.6314,335.5847,1058.8009,340.6122,1065.43,337.774" style="stroke: #A80036; stroke-width: 1.0;"/><!--link Mathematical Analysis to Algebraic Number Theory--><path d="M711.239,164.131 C728.21,193.864 761.749,244.878 805,272 C879.614,318.788 977.996,339.235 1052.26,348.153 " fill="none" id="Mathematical Analysis-Algebraic Number Theory" style="stroke: #A80036; stroke-width: 1.0;"/><polygon fill="#FFFFFF" points="1065.37,349.638,1059.8613,344.9846,1053.4471,348.2798,1058.9558,352.9332,1065.37,349.638" style="stroke: #A80036; stroke-width: 1.0;"/><!--
@startuml
"Mathematical Analysis" - -o "Differential Geometry"
"Mathematical Analysis" - -o "Introduction to Tensor"
"Mathematical Analysis" - -o "Topology"
"Mathematical Analysis" - -o "Probability"
"Mathematical Analysis" - -o "ODE"
"Mathematical Analysis" - -o "Complex Analysis"
"Mathematical Analysis" - -o "Real Analysis"
"Mathematical Analysis" - -o "Functional Analysis"

"Linear Algebra" - -o "Graph Theory"
"Linear Algebra" - -o "Combinatorics"
"Linear Algebra" - -o "Introduction to Tensor"
"Linear Algebra" - -o "Probability"
"Linear Algebra" - -o "ODE"
"Linear Algebra" - -o "Complex Analysis"

"Introduction to Algebra" - -o "Algebra"
"Introduction to Algebra" - -o "Combinatorics"


"Analytic Geometry" - -o "Differential Geometry"

"Algebra" - -o "Topology"

"ODE" - -o "Differential Geometry"
"ODE" - -o "PDE"

"Complex Analysis" - -o "Advanced Real Analysis"
"Complex Analysis" - -o "Functional Analysis"

"Real Analysis" - -o "Advanced Real Analysis"
"Real Analysis" - -o "Functional Analysis"
"Real Analysis" - -o "Harmonic Analysis"
"Real Analysis" - -o "PDE"

"Differential Geometry" - -o "Differential Manifold"
"Functional Analysis" - -o "Advanced Real Analysis"
"Functional Analysis" - -o "Harmonic Analysis"
"Functional Analysis" - -o "PDE"

"PDE" - -o "Differential Manifold"

"Algebra" - -o "Commutative Algebra"

"Linear Topology" - -o "Algebraic Topology"
"Mathematical Analysis" - -o "Algebraic Topology"
"Algebra" - -o "Algebraic Topology"
"Topology" - -o "Algebraic Topology"

"Linear Algebra" - -o "Algebraic Geometry"
"Algebra" - -o "Algebraic Geometry"
"Commutative Algebra" - -o "Algebraic Geometry"

"Algebra" - -o "Homological Geometry"
"Differential Manifold" - -o "Riemann Geometry"

"Riemann Geometry" - -o "Complex Geometry"
"Differential Geometry" - -o "Complex Geometry"
"Complex Analysis" - -o "Complex Geometry"
"PDE" - -o "Complex Geometry"

"Algebra" - -o "Algebraic Number Theory"
"Linear Algebra" - -o "Algebraic Number Theory"
"Complex Analysis" - -o "Algebraic Number Theory"
"Mathematical Analysis" - -o "Algebraic Number Theory"
@enduml

PlantUML version 1.2019.08(Sat Jul 13 19:25:14 UTC 2019)
(GPL source distribution)
Java Runtime: Java(TM) SE Runtime Environment
JVM: Java HotSpot(TM) 64-Bit Server VM
Java Version: 1.7.0_25-b15
Operating System: Linux
Default Encoding: UTF-8
Language: en
Country: US
--></g></svg>